Patient4_TMGait_0pt8_01_right_39_GRF.mot
version=1
nRows=58
nColumns=19
inDegrees=no
endheader
time	F1x	F1y	F1z	M1x	M1y	M1z	F2x	F2y	F2z	M2x	M2y	M2z	EC1x	EC1y	EC1z	EC2x	EC2y	EC2z
43.77	7.9537	708.3896	65.667	-225.5582	-62.5555	763.7199	-3.7659	-3.1098	-1.7258	0.15864	4.0692	-3.7742	-0.0592	0.0182	-0.0073	-0.0462	0.0165	0.9585
43.7811	8.9639	706.4021	65.6212	-224.0634	-62.6831	757.6529	-2.7195	-0.97362	-1.5363	0.62694	3.1749	-1.2196	-0.0592	0.0182	-0.0073	-0.0462	0.0165	0.9585
43.7923	10.5159	705.1326	65.427	-222.7512	-62.2863	751.891	-1.8398	0.8489	-1.2432	0.9956	2.3103	0.99679	-0.0592	0.0182	-0.0073	-0.0462	0.0165	0.9585
43.8034	12.5516	705.0113	65.0654	-221.7953	-61.3432	747.0972	-1.1784	2.2772	-0.93661	1.2711	1.5831	2.7671	-0.0592	0.0182	-0.0073	-0.0462	0.0165	0.9585
43.8146	14.9587	706.2863	64.5443	-221.2949	-59.9238	743.6734	-0.73781	3.3194	-0.66848	1.4682	1.0407	4.0852	-0.0592	0.0182	-0.0073	-0.0462	0.0165	0.9585
43.8257	17.6295	708.9868	63.9227	-221.2629	-58.1694	741.7476	-0.49582	4.0334	-0.46624	1.6037	0.69257	5.0191	-0.0592	0.0182	-0.0073	-0.0462	0.0165	0.9585
43.8369	20.4501	712.8768	63.3102	-221.6183	-56.2731	741.1184	-0.41388	4.4742	-0.32675	1.6865	0.50835	5.6283	-0.0592	0.0182	-0.0073	-0.0462	0.0165	0.9585
43.848	23.3408	717.5578	62.7963	-222.2267	-54.3942	741.3677	-0.45761	4.6737	-0.2554	1.7127	0.4633	5.9344	-0.0592	0.0182	-0.0073	-0.0462	0.0165	0.9585
43.8591	26.2808	722.5638	62.4915	-222.9373	-52.6813	741.9886	-0.59092	4.6297	-0.2378	1.6671	0.51812	5.9261	-0.0592	0.0182	-0.0073	-0.0462	0.0165	0.9585
43.8703	29.2845	727.4697	62.4376	-223.6209	-51.1929	742.489	-0.78019	4.2956	-0.27672	1.5192	0.65743	5.5398	-0.0592	0.0182	-0.0073	-0.0462	0.0165	0.9585
43.8814	32.3815	731.9811	62.677	-224.1905	-49.9717	742.5143	-0.99639	3.596	-0.3478	1.2314	0.84114	4.6707	-0.0592	0.0182	-0.0073	-0.0462	0.0165	0.9585
43.8926	35.609	735.9434	63.1948	-224.6071	-48.9972	741.8761	-1.1991	2.4319	-0.44626	0.75841	1.0444	3.1875	-0.0592	0.0182	-0.0073	-0.0462	0.0165	0.9585
43.9037	38.9669	739.306	63.992	-224.8649	-48.2714	740.5225	-1.3402	0.71974	-0.53749	0.064334	1.209	0.98238	-0.0592	0.0182	-0.0073	-0.0462	0.0165	0.9585
43.9149	42.4602	742.0368	65.0654	-224.9658	-47.7913	738.4425	-1.3522	-1.5789	-0.59594	-0.86337	1.2716	-1.9906	-0.0592	0.0182	-0.0073	-0.0462	0.0165	0.9585
43.926	46.0415	744.1323	66.3871	-224.9176	-47.5395	735.6705	-1.1356	-4.3702	-0.57919	-1.9837	1.1379	-5.61	-0.0592	0.0182	-0.0073	-0.0462	0.0165	0.9585
43.9371	49.6468	745.5779	67.9205	-224.7198	-47.497	732.2483	-0.56486	-7.3654	-0.42435	-3.1743	0.67614	-9.5169	-0.0592	0.0182	-0.0073	-0.0462	0.0165	0.9585
43.9483	53.2097	746.3504	69.555	-224.3603	-47.5821	728.2155	0.50126	-9.9469	-0.063155	-4.1819	-0.25784	-12.9141	-0.0592	0.0182	-0.0073	-0.0462	0.0165	0.9585
43.9594	56.6593	746.3146	71.1986	-223.7862	-47.7315	723.4927	2.1871	-11.1036	0.59389	-4.5879	-1.8252	-14.4844	-0.0592	0.0182	-0.0073	-0.0462	0.0165	0.9585
43.9706	59.9727	745.3222	72.7222	-222.9385	-47.8345	717.9903	4.5692	-9.3245	1.6176	-3.7713	-4.1454	-12.2762	-0.0592	0.0182	-0.0073	-0.0462	0.0165	0.9585
43.9817	63.1678	743.2517	74.0439	-221.7716	-47.8108	711.6291	7.619	-2.5892	3.0669	-0.90174	-7.2677	-3.6889	-0.0592	0.0182	-0.0073	-0.0462	0.0165	0.9585
43.9929	66.2692	740.0025	75.0823	-220.2557	-47.5799	704.3428	11.1041	11.5664	4.9084	5.0257	-11.0331	14.4586	-0.0592	0.0182	-0.0073	-0.0462	0.0165	0.9585
44.004	69.3035	735.3446	75.7421	-218.3331	-47.0523	695.941	14.4764	35.7854	6.9969	15.0815	-14.9962	45.5784	-0.0592	0.0182	-0.0073	-0.0462	0.0165	0.9585
44.0151	72.2541	728.736	75.8729	-215.8645	-46.1018	685.9546	16.7484	72.3414	8.9759	30.1713	-18.2639	92.63	-0.0592	0.0182	-0.0073	-0.0462	0.0165	0.9585
44.0263	75.0693	719.1276	75.2403	-212.5724	-44.5336	673.4266	16.3632	122.2764	10.2311	50.6808	-19.3895	156.9817	-0.0592	0.0182	-0.0073	-0.0462	0.0165	0.9585
44.0374	77.5987	704.8995	73.5712	-208.0152	-42.145	656.8931	11.2861	184.3602	9.9737	76.0485	-16.5481	237.1052	-0.0592	0.0182	-0.0073	-0.0462	0.0165	0.9585
44.0486	79.531	684.0691	70.5782	-201.6371	-38.7721	634.5792	0.30816	254.4073	7.3433	104.5036	-8.1754	327.6581	-0.0592	0.0182	-0.0073	-0.0462	0.0165	0.9585
44.0597	80.4387	654.7587	66.0469	-192.897	-34.3606	604.8618	-15.2953	325.5304	1.7416	133.2056	5.8442	419.68	-0.0592	0.0182	-0.0073	-0.0462	0.0165	0.9585
44.0709	79.8486	615.6936	59.9303	-181.416	-29.0287	566.6513	-32.3834	389.8919	-6.329	159.0422	23.493	502.7003	-0.0592	0.0182	-0.0073	-0.0462	0.0165	0.9585
44.082	77.3297	566.6451	52.4124	-167.101	-23.0812	519.8169	-48.1282	443.2282	-15.7815	180.345	42.1271	570.8473	-0.0592	0.0182	-0.0073	-0.0462	0.0165	0.9585
44.0931	72.6375	508.6996	43.9112	-150.2213	-16.9663	465.3987	-61.1903	486.176	-25.1389	197.4318	59.3798	624.6518	-0.0592	0.0182	-0.0073	-0.0462	0.0165	0.9585
44.1043	65.7879	444.0664	35.0843	-131.3641	-11.2453	405.3927	-70.931	522.0216	-33.6047	211.6704	73.9993	668.291	-0.0592	0.0182	-0.0073	-0.0462	0.0165	0.9585
44.1154	57.0769	375.8249	26.6401	-111.3801	-6.432	342.5589	-77.3434	554.1796	-40.4202	224.5027	85.0762	706.2453	-0.0592	0.0182	-0.0073	-0.0462	0.0165	0.9585
44.1266	47.0104	307.5915	19.1712	-91.3014	-2.8839	280.1163	-80.6856	584.927	-45.2125	236.871	92.3103	741.5205	-0.0592	0.0182	-0.0073	-0.0462	0.0165	0.9585
44.1377	36.3025	243.0358	13.0682	-72.2099	-0.72674	221.3064	-81.4562	614.9576	-48.2475	249.0478	96.2157	775.157	-0.0592	0.0182	-0.0073	-0.0462	0.0165	0.9585
44.1489	25.8817	185.262	8.4592	-55.0498	0.20296	168.8397	-80.2779	644.0414	-49.8831	260.8978	97.5467	806.9991	-0.0592	0.0182	-0.0073	-0.0462	0.0165	0.9585
44.16	16.608	136.1037	5.2683	-40.4023	0.23033	124.2731	-77.8533	671.5748	-50.9275	272.1014	97.5496	836.4879	-0.0592	0.0182	-0.0073	-0.0462	0.0165	0.9585
44.1711	9.0468	96.0811	3.2412	-28.4561	-0.25351	87.9857	-74.8502	696.923	-51.8518	282.3534	97.123	863.029	-0.0592	0.0182	-0.0073	-0.0462	0.0165	0.9585
44.1823	3.3232	64.7186	2.0225	-19.0967	-0.89764	59.5361	-71.811	719.6974	-53.1953	291.4413	97.1309	886.2953	-0.0592	0.0182	-0.0073	-0.0462	0.0165	0.9585
44.1934	-0.68661	41.0092	1.3334	-12.0373	-1.4985	38.02	-69.0787	739.5358	-55.1022	299.2155	97.9063	905.9094	-0.0592	0.0182	-0.0073	-0.0462	0.0165	0.9585
44.2046	-3.1887	23.7864	0.93342	-6.9326	-1.9052	22.4026	-66.8111	756.1835	-57.4606	305.5928	99.3813	921.5813	-0.0592	0.0182	-0.0073	-0.0462	0.0165	0.9585
44.2157	-4.3822	11.8634	0.67433	-3.4249	-2.0497	11.594	-64.9508	769.5039	-59.9485	310.5608	101.1532	933.1052	-0.0592	0.0182	-0.0073	-0.0462	0.0165	0.9585
44.2269	-4.5162	4.1859	0.48476	-1.1896	-1.9445	4.6193	-63.3462	779.4664	-62.1082	314.1621	102.6358	940.4121	-0.0592	0.0182	-0.0073	-0.0462	0.0165	0.9585
44.238	-4.002	-0.227	0.34131	0.074262	-1.6887	0.58466	-61.727	786.0744	-63.7082	316.4346	103.4458	943.4751	-0.0592	0.0182	-0.0073	-0.0462	0.0165	0.9585
44.2491	-3.2254	-2.272	0.26809	0.63862	-1.4149	-1.3194	-59.9182	789.1968	-64.5967	317.3544	103.3361	942.1346	-0.0592	0.0182	-0.0073	-0.0462	0.0165	0.9585
44.2603	-2.4099	-2.7914	0.23492	0.75235	-1.1591	-1.8557	-57.7538	788.6909	-64.93	316.8675	102.4004	936.266	-0.0592	0.0182	-0.0073	-0.0462	0.0165	0.9585
44.2714	-1.6951	-2.4226	0.24217	0.60841	-0.95902	-1.5781	-55.1787	784.6656	-64.8359	315.0119	100.7575	926.068	-0.0592	0.0182	-0.0073	-0.0462	0.0165	0.9585
44.2826	-1.133	-1.6251	0.26382	0.34672	-0.80757	-0.91695	-52.1788	777.6312	-64.4634	311.981	98.5715	912.2185	-0.0592	0.0182	-0.0073	-0.0462	0.0165	0.9585
44.2937	-0.72786	-0.71431	0.2817	0.062558	-0.69495	-0.13957	-48.7559	768.4668	-63.9083	308.1099	95.9701	895.8332	-0.0592	0.0182	-0.0073	-0.0462	0.0165	0.9585
44.3049	-0.45422	0.13684	0.29259	-0.19338	-0.61334	0.60412	-44.9856	758.1547	-63.195	303.783	93.0326	878.1335	-0.0592	0.0182	-0.0073	-0.0462	0.0165	0.9585
44.316	-0.2955	0.83165	0.28753	-0.39665	-0.54868	1.2426	-40.9455	747.6906	-62.388	299.3823	89.8739	860.3409	-0.0592	0.0182	-0.0073	-0.0462	0.0165	0.9585
44.3271	-0.20315	1.3624	0.27352	-0.54656	-0.49316	1.7732	-36.7575	737.9048	-61.4986	295.2284	86.5662	843.4604	-0.0592	0.0182	-0.0073	-0.0462	0.0165	0.9585
44.3383	-0.16696	1.7592	0.24042	-0.6542	-0.43262	2.2177	-32.5492	729.4092	-60.632	291.5479	83.2771	828.2297	-0.0592	0.0182	-0.0073	-0.0462	0.0165	0.9585
44.3494	-0.15512	2.0454	0.19883	-0.72886	-0.36778	2.576	-28.4476	722.5762	-59.8461	288.473	80.1265	815.0946	-0.0592	0.0182	-0.0073	-0.0462	0.0165	0.9585
44.3606	-0.15239	2.2771	0.15345	-0.78966	-0.30255	2.8812	-24.5269	717.5501	-59.1996	286.051	77.2114	804.2215	-0.0592	0.0182	-0.0073	-0.0462	0.0165	0.9585
44.3717	-0.16144	2.4515	0.11536	-0.83947	-0.25306	3.1114	-20.8015	714.383	-58.6974	284.2911	74.5427	795.6221	-0.0592	0.0182	-0.0073	-0.0462	0.0165	0.9585
44.3829	-0.17641	2.6036	0.099519	-0.88556	-0.23912	3.2927	-17.189	713.0131	-58.2966	283.1656	72.0474	789.1525	-0.0592	0.0182	-0.0073	-0.0462	0.0165	0.9585
44.394	-0.21547	2.7038	0.10095	-0.91588	-0.2652	3.3791	-13.5837	713.3004	-57.9877	282.6152	69.6709	784.586	-0.0592	0.0182	-0.0073	-0.0462	0.0165	0.9585
44.4051	-0.29559	2.7377	0.14111	-0.91973	-0.35779	3.3541	-9.8255	715.0233	-57.7451	282.5489	67.33	781.5922	-0.0592	0.0182	-0.0073	-0.0462	0.0165	0.9585
